<?xml version="1.0" standalone="no"?><!DOCTYPE svg PUBLIC "-//W3C//DTD SVG 1.1//EN" "http://www.w3.org/Graphics/SVG/1.1/DTD/svg11.dtd"><svg t="1731513612951" class="icon" viewBox="0 0 1024 1024" version="1.1" xmlns="http://www.w3.org/2000/svg" p-id="4380" xmlns:xlink="http://www.w3.org/1999/xlink" width="256" height="256"><path d="M383.8 256c0-117.8 95.5-213.3 213.3-213.3C715 42.7 810.5 138.2 810.5 256S715 469.3 597.2 469.3c-117.9 0-213.4-95.5-213.4-213.3z" fill="#666666" p-id="4381"></path><path d="M597.2 256m-170.7 0a170.7 170.7 0 1 0 341.4 0 170.7 170.7 0 1 0-341.4 0Z" fill="#FFF7EA" p-id="4382"></path><path d="M170.5 213.3C170.5 95.5 266 0 383.8 0S597.2 95.5 597.2 213.3s-95.5 213.3-213.3 213.3-213.4-95.4-213.4-213.3z" fill="#666666" p-id="4383"></path><path d="M213.1 213.3a170.7 170.7 0 1 0 341.4 0 170.7 170.7 0 1 0-341.4 0Z" fill="#FFECCC" p-id="4384"></path><path d="M554.5 256c0-94.3 76.4-170.7 170.7-170.7s170.7 76.4 170.7 170.7-76.4 170.7-170.7 170.7S554.5 350.3 554.5 256z" fill="#666666" p-id="4385"></path><path d="M597.2 256a128 128 0 1 0 256 0 128 128 0 1 0-256 0Z" fill="#FFF3DF" p-id="4386"></path><path d="M127.8 256c0-94.3 76.4-170.7 170.7-170.7S469.2 161.7 469.2 256s-76.4 170.7-170.7 170.7S127.8 350.3 127.8 256z" fill="#666666" p-id="4387"></path><path d="M170.5 256a128 128 0 1 0 256 0 128 128 0 1 0-256 0Z" fill="#FFF7EA" p-id="4388"></path><path d="M90.8 346.3c-6.1-48.8 30.5-90.3 79.7-90.3h682.7c49.2 0 85.8 41.5 79.7 90.3l-74.8 598c-5.6 44.7-45.2 79.7-90.3 79.7h-512c-45.1 0-84.7-35-90.3-79.7l-74.7-598z" fill="#666666" p-id="4389"></path><path d="M133.1 341c-2.9-23.4 13.8-42.3 37.4-42.3h682.7c23.6 0 40.3 19 37.4 42.3l-74.8 598c-2.9 23.4-24.4 42.3-47.9 42.3h-512c-23.6 0-45-19-47.9-42.3l-74.9-598z" fill="#FFF7E9" p-id="4390"></path><path d="M277.2 384H334l28.4 512h-56.9l-28.3-512z m213.3 0h42.7v512h-42.7V384z m199.1 0h56.9L718 896h-56.9l28.5-512z" fill="#FFE2B1" p-id="4391"></path></svg>